<?xml version="1.0" encoding="UTF-8"?>
<svg id="Camada_2" data-name="Camada 2" xmlns="http://www.w3.org/2000/svg" xmlns:xlink="http://www.w3.org/1999/xlink" viewBox="0 0 361.58 61.58">
  <defs>
    <style>
      .cls-1 {
        fill: #3e2bc2;
      }

      .cls-2 {
        fill: #5b45d7;
      }

      .cls-3 {
        fill: #4834c9;
      }

      .cls-4 {
        fill: #513cd0;
      }

      .cls-5 {
        fill: #503bcf;
      }

      .cls-6 {
        fill: #2f1fb7;
      }

      .cls-7 {
        fill: #5943d5;
      }

      .cls-8 {
        fill: #2515b0;
      }

      .cls-9 {
        fill: #3f2cc3;
      }

      .cls-10 {
        fill: #4b36cb;
      }

      .cls-11 {
        fill: #3120b9;
      }

      .cls-12 {
        fill: #3524bb;
      }

      .cls-13 {
        fill: #3423bb;
      }

      .cls-14 {
        fill: url(#Degradado_sin_nombre_26);
      }

      .cls-15 {
        fill: #4a35ca;
      }

      .cls-16 {
        fill: #fff;
      }

      .cls-17 {
        fill: #3725bd;
      }

      .cls-18 {
        fill: #2718b2;
      }

      .cls-19 {
        fill: #2e1eb7;
      }

      .cls-20 {
        fill: #2717b1;
      }

      .cls-21 {
        fill: #523dd0;
      }

      .cls-22 {
        fill: none;
      }

      .cls-23 {
        fill: #4431c6;
      }

      .cls-24 {
        fill: #5e47d9;
      }

      .cls-25 {
        fill: #4633c8;
      }

      .cls-26 {
        fill: #301fb8;
      }

      .cls-27 {
        fill: #2a1ab4;
      }

      .cls-28 {
        fill: #2c1bb5;
      }

      .cls-29 {
        clip-path: url(#clippath-1);
      }

      .cls-30 {
        fill: #553fd2;
      }

      .cls-31 {
        fill: #5d46d8;
      }

      .cls-32 {
        fill: #422fc5;
      }

      .cls-33 {
        fill: #5640d3;
      }

      .cls-34 {
        fill: #3624bc;
      }

      .cls-35 {
        fill: #2b1bb4;
      }

      .cls-36 {
        fill: #2818b2;
      }

      .cls-37 {
        fill: #4008da;
      }

      .cls-38 {
        fill: #2e1db6;
      }

      .cls-39 {
        fill: #3826be;
      }

      .cls-40 {
        fill: #2616b0;
      }

      .cls-41 {
        fill: #3d2ac1;
      }

      .cls-42 {
        fill: #4c37cc;
      }

      .cls-43 {
        fill: #4733c9;
      }

      .cls-44 {
        fill: #5741d4;
      }

      .cls-45 {
        fill: #2213ae;
      }

      .cls-46 {
        fill: url(#Degradado_sin_nombre_26-2);
      }

      .cls-47 {
        fill: #4532c7;
      }

      .cls-48 {
        fill: #2d1cb5;
      }

      .cls-49 {
        fill: #402dc3;
      }

      .cls-50 {
        fill: #4e39cd;
      }

      .cls-51 {
        fill: #3927be;
      }

      .cls-52 {
        fill: #533ed1;
      }

      .cls-53 {
        fill: #2314af;
      }

      .cls-54 {
        fill: #5a44d6;
      }

      .cls-55 {
        fill: #5842d5;
      }

      .cls-56 {
        clip-path: url(#clippath-2);
      }

      .cls-57 {
        fill: #4d38cd;
      }

      .cls-58 {
        fill: #3322ba;
      }

      .cls-59 {
        fill: #412ec4;
      }

      .cls-60 {
        fill: #4f3ace;
      }

      .cls-61 {
        fill: #4330c6;
      }

      .cls-62 {
        fill: #3221b9;
      }

      .cls-63 {
        clip-path: url(#clippath);
      }

      .cls-64 {
        fill: #3b29c0;
      }

      .cls-65 {
        fill: #3a28bf;
      }

      .cls-66 {
        fill: #2415af;
      }

      .cls-67 {
        fill: #3c2ac0;
      }

      .cls-68 {
        fill: #2919b3;
      }
    </style>
    <clipPath id="clippath">
      <rect class="cls-22" width="61.58" height="61.58" rx="11.47" ry="11.47"/>
    </clipPath>
    <clipPath id="clippath-1">
      <path class="cls-22" d="M32.7,36.87h-10.8l-10.2-11.1,10.2-11.11h10.8l-10.25,11.11,10.25,11.1Z"/>
    </clipPath>
    <linearGradient id="Degradado_sin_nombre_26" data-name="Degradado sin nombre 26" x1="16.14" y1="24.8" x2="29.94" y2="24.8" gradientUnits="userSpaceOnUse">
      <stop offset="0" stop-color="#9375ff"/>
      <stop offset="1" stop-color="#1306a3"/>
    </linearGradient>
    <clipPath id="clippath-2">
      <path class="cls-22" d="M30.46,25.03h10.8l10.2,11.11-10.2,11.1h-10.8l10.25-11.1-10.25-11.11Z"/>
    </clipPath>
    <linearGradient id="Degradado_sin_nombre_26-2" data-name="Degradado sin nombre 26" x1="33.22" y1="37.11" x2="47.02" y2="37.11" xlink:href="#Degradado_sin_nombre_26"/>
  </defs>
  <g id="OBJECTS">
    <g>
      <path class="cls-37" d="M80.95,24.59c1.32-2.39,3.16-4.25,5.52-5.59,2.36-1.33,5.04-2,8.03-2,3.67,0,6.81.97,9.42,2.9,2.61,1.94,4.36,4.58,5.24,7.92h-8.27c-.62-1.29-1.49-2.27-2.62-2.95-1.13-.67-2.41-1.01-3.85-1.01-2.32,0-4.2.81-5.63,2.42-1.44,1.61-2.16,3.77-2.16,6.47s.72,4.85,2.16,6.47c1.44,1.61,3.31,2.42,5.63,2.42,1.44,0,2.72-.34,3.85-1.01,1.13-.67,2-1.66,2.62-2.95h8.27c-.88,3.34-2.63,5.98-5.24,7.9-2.61,1.92-5.75,2.88-9.42,2.88-2.99,0-5.67-.67-8.03-2-2.36-1.33-4.2-3.19-5.52-5.57-1.32-2.38-1.98-5.09-1.98-8.14s.66-5.77,1.98-8.16Z"/>
      <path class="cls-37" d="M116.52,19.97c-.84-.78-1.25-1.74-1.25-2.88s.42-2.15,1.25-2.93c.84-.78,1.91-1.17,3.23-1.17s2.35.39,3.19,1.17c.84.78,1.25,1.75,1.25,2.93s-.42,2.1-1.25,2.88c-.84.78-1.9,1.17-3.19,1.17s-2.4-.39-3.23-1.17ZM123.49,23.69v24.55h-7.52v-24.55h7.52Z"/>
      <path class="cls-37" d="M131.08,29.27c.95-1.91,2.25-3.37,3.89-4.4,1.64-1.03,3.48-1.54,5.5-1.54,1.61,0,3.09.34,4.42,1.01,1.33.68,2.38,1.58,3.15,2.73v-11.4h7.52v32.56h-7.52v-3.52c-.7,1.17-1.71,2.11-3.01,2.82-1.31.7-2.82,1.06-4.55,1.06-2.02,0-3.86-.52-5.5-1.56-1.64-1.04-2.94-2.52-3.89-4.44-.95-1.92-1.43-4.14-1.43-6.67s.48-4.74,1.43-6.64ZM146.48,31.52c-1.04-1.08-2.31-1.63-3.81-1.63s-2.77.54-3.81,1.61c-1.04,1.07-1.56,2.55-1.56,4.42s.52,3.37,1.56,4.47c1.04,1.1,2.31,1.65,3.81,1.65s2.76-.54,3.81-1.63c1.04-1.08,1.56-2.57,1.56-4.44s-.52-3.36-1.56-4.44Z"/>
      <path class="cls-37" d="M181.37,46.52c-2.42-1.35-4.34-3.23-5.76-5.65s-2.13-5.14-2.13-8.16.71-5.73,2.13-8.14c1.42-2.4,3.34-4.28,5.76-5.63,2.42-1.35,5.08-2.02,7.99-2.02s5.57.68,7.99,2.02c2.42,1.35,4.33,3.23,5.72,5.63,1.39,2.41,2.09,5.12,2.09,8.14s-.7,5.74-2.11,8.16c-1.41,2.42-3.31,4.31-5.72,5.65-2.41,1.35-5.06,2.02-7.96,2.02s-5.57-.67-7.99-2.02ZM195.28,39.22c1.48-1.64,2.22-3.81,2.22-6.51s-.74-4.91-2.22-6.53-3.45-2.44-5.92-2.44-4.48.81-5.96,2.42c-1.48,1.61-2.22,3.8-2.22,6.56s.74,4.91,2.22,6.53c1.48,1.63,3.47,2.44,5.96,2.44s4.44-.82,5.92-2.46Z"/>
      <path class="cls-37" d="M219.06,15.68v32.56h-7.52V15.68h7.52Z"/>
      <path class="cls-37" d="M227.27,19.97c-.84-.78-1.25-1.74-1.25-2.88s.42-2.15,1.25-2.93c.84-.78,1.91-1.17,3.23-1.17s2.35.39,3.19,1.17c.84.78,1.25,1.75,1.25,2.93s-.42,2.1-1.25,2.88c-.84.78-1.9,1.17-3.19,1.17s-2.4-.39-3.23-1.17ZM234.24,23.69v24.55h-7.52v-24.55h7.52Z"/>
      <path class="cls-37" d="M252.94,41.2l5.32-17.51h8.01l-8.71,24.55h-9.28l-8.71-24.55h8.05l5.32,17.51Z"/>
      <path class="cls-37" d="M294.65,37.77h-17.03c.12,1.53.61,2.69,1.47,3.5.87.81,1.93,1.21,3.19,1.21,1.88,0,3.18-.79,3.92-2.38h8.01c-.41,1.61-1.15,3.07-2.22,4.36-1.07,1.29-2.41,2.3-4.03,3.04-1.61.73-3.42,1.1-5.41,1.1-2.41,0-4.55-.51-6.42-1.54-1.88-1.03-3.34-2.49-4.4-4.4-1.06-1.91-1.58-4.14-1.58-6.69s.52-4.78,1.56-6.69c1.04-1.91,2.5-3.37,4.38-4.4s4.03-1.54,6.47-1.54,4.49.5,6.34,1.5c1.85,1,3.29,2.42,4.33,4.27,1.04,1.85,1.56,4,1.56,6.47,0,.7-.04,1.44-.13,2.2ZM287.08,33.59c0-1.29-.44-2.32-1.32-3.08-.88-.76-1.98-1.14-3.3-1.14s-2.33.37-3.19,1.1c-.87.73-1.4,1.77-1.61,3.12h9.42Z"/>
      <path class="cls-37" d="M301.5,19.97c-.84-.78-1.25-1.74-1.25-2.88s.42-2.15,1.25-2.93c.84-.78,1.91-1.17,3.23-1.17s2.35.39,3.19,1.17c.84.78,1.25,1.75,1.25,2.93s-.42,2.1-1.25,2.88c-.84.78-1.9,1.17-3.19,1.17s-2.4-.39-3.23-1.17ZM308.47,23.69v24.55h-7.52v-24.55h7.52Z"/>
      <path class="cls-37" d="M326.95,24.59c1.32-.78,2.79-1.17,4.4-1.17v7.96h-2.07c-1.88,0-3.29.4-4.22,1.21-.94.81-1.41,2.22-1.41,4.25v11.4h-7.52v-24.55h7.52v4.09c.88-1.35,1.98-2.41,3.3-3.19Z"/>
      <path class="cls-37" d="M337.09,29.27c.95-1.91,2.25-3.37,3.89-4.4s3.48-1.54,5.5-1.54c1.73,0,3.25.35,4.55,1.06,1.3.7,2.31,1.63,3.01,2.77v-3.48h7.52v24.55h-7.52v-3.48c-.73,1.14-1.75,2.07-3.06,2.77-1.31.7-2.82,1.06-4.55,1.06-2,0-3.81-.52-5.46-1.56-1.64-1.04-2.94-2.52-3.89-4.44-.95-1.92-1.43-4.14-1.43-6.67s.48-4.74,1.43-6.64ZM352.49,31.52c-1.04-1.08-2.31-1.63-3.81-1.63s-2.76.54-3.81,1.61c-1.04,1.07-1.56,2.55-1.56,4.42s.52,3.37,1.56,4.47c1.04,1.1,2.31,1.65,3.81,1.65s2.76-.54,3.81-1.63c1.04-1.08,1.56-2.57,1.56-4.44s-.52-3.36-1.56-4.44Z"/>
    </g>
    <g class="cls-63">
      <polygon class="cls-45" points="1.63 0 0 1.03 0 0 1.63 0"/>
      <polygon class="cls-53" points="4.3 0 0 2.72 0 1.03 1.63 0 4.3 0"/>
      <polygon class="cls-66" points="6.98 0 0 4.4 0 2.72 4.3 0 6.98 0"/>
      <polygon class="cls-8" points="9.65 0 0 6.09 0 4.4 6.98 0 9.65 0"/>
      <polygon class="cls-40" points="12.33 0 0 7.78 0 6.09 9.65 0 12.33 0"/>
      <polygon class="cls-20" points="15 0 0 9.47 0 7.78 12.33 0 15 0"/>
      <polygon class="cls-18" points="17.67 0 0 11.15 0 9.47 15 0 17.67 0"/>
      <polygon class="cls-36" points="20.35 0 0 12.84 0 11.15 17.67 0 20.35 0"/>
      <polygon class="cls-68" points="23.02 0 0 14.53 0 12.84 20.35 0 23.02 0"/>
      <polygon class="cls-27" points="25.7 0 0 16.22 0 14.53 23.02 0 25.7 0"/>
      <polygon class="cls-35" points="28.37 0 0 17.9 0 16.22 25.7 0 28.37 0"/>
      <polygon class="cls-28" points="31.05 0 0 19.59 0 17.9 28.37 0 31.05 0"/>
      <polygon class="cls-48" points="33.72 0 0 21.28 0 19.59 31.05 0 33.72 0"/>
      <polygon class="cls-38" points="36.4 0 0 22.97 0 21.28 33.72 0 36.4 0"/>
      <polygon class="cls-19" points="39.07 0 0 24.66 0 22.97 36.4 0 39.07 0"/>
      <polygon class="cls-6" points="41.74 0 0 26.34 0 24.66 39.07 0 41.74 0"/>
      <polygon class="cls-26" points="44.42 0 0 28.03 0 26.34 41.74 0 44.42 0"/>
      <polygon class="cls-11" points="47.09 0 0 29.72 0 28.03 44.42 0 47.09 0"/>
      <polygon class="cls-62" points="49.77 0 0 31.41 0 29.72 47.09 0 49.77 0"/>
      <polygon class="cls-58" points="52.44 0 0 33.09 0 31.41 49.77 0 52.44 0"/>
      <polygon class="cls-13" points="55.12 0 0 34.78 0 33.09 52.44 0 55.12 0"/>
      <polygon class="cls-12" points="57.79 0 0 36.47 0 34.78 55.12 0 57.79 0"/>
      <polygon class="cls-34" points="60.46 0 0 38.16 0 36.47 57.79 0 60.46 0"/>
      <polygon class="cls-17" points="60.71 0 61.4 1.1 0 39.85 0 38.16 60.46 0 60.71 0"/>
      <polygon class="cls-39" points="61.4 1.1 61.58 1.39 61.58 2.67 0 41.53 0 39.85 61.4 1.1"/>
      <polygon class="cls-51" points="61.58 4.36 0 43.22 0 41.53 61.58 2.67 61.58 4.36"/>
      <polygon class="cls-65" points="61.58 6.05 0 44.91 0 43.22 61.58 4.36 61.58 6.05"/>
      <polygon class="cls-64" points="61.58 7.73 0 46.6 0 44.91 61.58 6.05 61.58 7.73"/>
      <polygon class="cls-67" points="61.58 9.42 0 48.28 0 46.6 61.58 7.73 61.58 9.42"/>
      <polygon class="cls-41" points="61.58 11.11 0 49.97 0 48.28 61.58 9.42 61.58 11.11"/>
      <polygon class="cls-1" points="61.58 12.8 0 51.66 0 49.97 61.58 11.11 61.58 12.8"/>
      <polygon class="cls-9" points="61.58 14.48 0 53.35 0 51.66 61.58 12.8 61.58 14.48"/>
      <polygon class="cls-49" points="61.58 16.17 0 55.03 0 53.35 61.58 14.48 61.58 16.17"/>
      <polygon class="cls-59" points="61.58 17.86 0 56.72 0 55.03 61.58 16.17 61.58 17.86"/>
      <polygon class="cls-32" points="61.58 19.55 0 58.41 0 56.72 61.58 17.86 61.58 19.55"/>
      <polygon class="cls-61" points="61.58 21.23 0 60.1 0 58.41 61.58 19.55 61.58 21.23"/>
      <polygon class="cls-23" points="61.58 22.92 .72 61.33 0 60.2 0 60.1 61.58 21.23 61.58 22.92"/>
      <polygon class="cls-47" points="61.58 24.61 2.99 61.58 .87 61.58 .72 61.33 61.58 22.92 61.58 24.61"/>
      <polygon class="cls-25" points="61.58 26.3 5.67 61.58 2.99 61.58 61.58 24.61 61.58 26.3"/>
      <polygon class="cls-43" points="61.58 27.99 8.34 61.58 5.67 61.58 61.58 26.3 61.58 27.99"/>
      <polygon class="cls-3" points="61.58 29.67 11.02 61.58 8.34 61.58 61.58 27.99 61.58 29.67"/>
      <polygon class="cls-15" points="61.58 31.36 13.69 61.58 11.02 61.58 61.58 29.67 61.58 31.36"/>
      <polygon class="cls-10" points="61.58 33.05 16.37 61.58 13.69 61.58 61.58 31.36 61.58 33.05"/>
      <polygon class="cls-42" points="61.58 34.74 19.04 61.58 16.37 61.58 61.58 33.05 61.58 34.74"/>
      <polygon class="cls-57" points="61.58 36.42 21.72 61.58 19.04 61.58 61.58 34.74 61.58 36.42"/>
      <polygon class="cls-50" points="61.58 38.11 24.39 61.58 21.72 61.58 61.58 36.42 61.58 38.11"/>
      <polygon class="cls-60" points="61.58 39.8 27.06 61.58 24.39 61.58 61.58 38.11 61.58 39.8"/>
      <polygon class="cls-5" points="61.58 41.49 29.74 61.58 27.06 61.58 61.58 39.8 61.58 41.49"/>
      <polygon class="cls-4" points="61.58 43.18 32.41 61.58 29.74 61.58 61.58 41.49 61.58 43.18"/>
      <polygon class="cls-21" points="61.58 44.86 35.09 61.58 32.41 61.58 61.58 43.18 61.58 44.86"/>
      <polygon class="cls-52" points="61.58 46.55 37.76 61.58 35.09 61.58 61.58 44.86 61.58 46.55"/>
      <polygon class="cls-30" points="61.58 48.24 40.44 61.58 37.76 61.58 61.58 46.55 61.58 48.24"/>
      <polygon class="cls-33" points="61.58 49.93 43.11 61.58 40.44 61.58 61.58 48.24 61.58 49.93"/>
      <polygon class="cls-44" points="61.58 51.61 45.79 61.58 43.11 61.58 61.58 49.93 61.58 51.61"/>
      <polygon class="cls-55" points="61.58 53.3 48.46 61.58 45.79 61.58 61.58 51.61 61.58 53.3"/>
      <polygon class="cls-7" points="61.58 54.99 51.13 61.58 48.46 61.58 61.58 53.3 61.58 54.99"/>
      <polygon class="cls-54" points="61.58 56.68 53.81 61.58 51.13 61.58 61.58 54.99 61.58 56.68"/>
      <polygon class="cls-2" points="61.58 58.36 56.48 61.58 53.81 61.58 61.58 56.68 61.58 58.36"/>
      <polygon class="cls-31" points="61.58 60.05 59.16 61.58 56.48 61.58 61.58 58.36 61.58 60.05"/>
      <polygon class="cls-24" points="59.16 61.58 61.58 60.05 61.58 61.58 59.16 61.58"/>
    </g>
    <g>
      <path class="cls-16" d="M32.7,36.87h-10.8l-10.2-11.1,10.2-11.11h10.8l-10.25,11.11,10.25,11.1Z"/>
      <path class="cls-16" d="M30.36,25.2h10.8l10.2,11.1-10.2,11.1h-10.8l10.25-11.1-10.25-11.1Z"/>
      <g class="cls-29">
        <polygon class="cls-14" points="27.72 39.22 16.14 25.77 29.17 10.38 29.94 11.02 17.46 25.77 28.48 38.56 27.72 39.22"/>
      </g>
      <g class="cls-56">
        <polygon class="cls-46" points="33.98 51.53 33.22 50.89 45.7 36.14 34.68 23.35 35.43 22.69 47.02 36.14 33.98 51.53"/>
      </g>
    </g>
  </g>
</svg>